<svg viewBox="0 0 400 300" xmlns="http://www.w3.org/2000/svg">
  <rect width="400" height="300" fill="#0f0f0f"/>
  <defs><radialGradient id="ag" cx="50%" cy="40%" r="60%"><stop offset="0%" stop-color="#00d4ff" stop-opacity="0.15"/><stop offset="100%" stop-color="#0f0f0f" stop-opacity="0"/></radialGradient></defs>
  <ellipse cx="200" cy="130" rx="180" ry="130" fill="url(#ag)"/>
  <!-- 中央 AI 圖標 -->
  <circle cx="200" cy="130" r="55" fill="#141414" stroke="#00d4ff" stroke-width="2"/>
  <circle cx="200" cy="130" r="42" fill="none" stroke="#00d4ff" stroke-width="0.8" stroke-dasharray="5 3" opacity="0.5"/>
  <text x="200" y="122" text-anchor="middle" fill="#00d4ff" font-size="28" font-family="sans-serif">🤖</text>
  <text x="200" y="148" text-anchor="middle" fill="#ff6b35" font-size="10" font-family="monospace" letter-spacing="2">A·I</text>
  <!-- 軌道 -->
  <ellipse cx="200" cy="130" rx="90" ry="90" fill="none" stroke="#ff6b35" stroke-width="0.8" stroke-dasharray="3 6" opacity="0.4"/>
  <!-- 軌道節點 -->
  <circle cx="290" cy="130" r="6" fill="#ff6b35" opacity="0.8"/>
  <circle cx="110" cy="130" r="6" fill="#00d4ff" opacity="0.8"/>
  <circle cx="200" cy="40" r="6" fill="#50fa7b" opacity="0.8"/>
  <circle cx="200" cy="220" r="6" fill="#ff6b35" opacity="0.6"/>
  <circle cx="263" cy="67" r="4" fill="#00d4ff" opacity="0.6"/>
  <circle cx="137" cy="193" r="4" fill="#50fa7b" opacity="0.6"/>
  <!-- 標籤 -->
  <rect x="295" y="118" width="70" height="24" rx="4" fill="#141414" stroke="#ff6b35" stroke-width="1"/>
  <text x="330" y="134" text-anchor="middle" fill="#ff6b35" font-size="8" font-family="monospace">分析職場</text>
  <rect x="35" y="118" width="70" height="24" rx="4" fill="#141414" stroke="#00d4ff" stroke-width="1"/>
  <text x="70" y="134" text-anchor="middle" fill="#00d4ff" font-size="8" font-family="monospace">AI工具</text>
  <rect x="162" y="10" width="76" height="24" rx="4" fill="#141414" stroke="#50fa7b" stroke-width="1"/>
  <text x="200" y="26" text-anchor="middle" fill="#50fa7b" font-size="8" font-family="monospace">識破謊言</text>
  <!-- 連接線 -->
  <line x1="200" y1="185" x2="200" y2="220" stroke="#ff6b35" stroke-width="1" opacity="0.5"/>
  <line x1="200" y1="75" x2="200" y2="40" stroke="#50fa7b" stroke-width="1" opacity="0.5"/>
  <line x1="255" y1="130" x2="290" y2="130" stroke="#ff6b35" stroke-width="1" opacity="0.5"/>
  <line x1="145" y1="130" x2="110" y2="130" stroke="#00d4ff" stroke-width="1" opacity="0.5"/>
</svg>