<svg viewBox="0 0 1200 500" xmlns="http://www.w3.org/2000/svg">
  <defs>
    <radialGradient id="ctag1" cx="30%" cy="50%" r="40%"><stop offset="0%" stop-color="#ff6b35" stop-opacity="0.12"/><stop offset="100%" stop-color="#080808" stop-opacity="0"/></radialGradient>
    <radialGradient id="ctag2" cx="70%" cy="50%" r="40%"><stop offset="0%" stop-color="#00d4ff" stop-opacity="0.08"/><stop offset="100%" stop-color="#080808" stop-opacity="0"/></radialGradient>
  </defs>
  <rect width="1200" height="500" fill="#080808"/>
  <ellipse cx="360" cy="250" rx="300" ry="220" fill="url(#ctag1)"/>
  <ellipse cx="840" cy="250" rx="300" ry="220" fill="url(#ctag2)"/>
  <!-- 網格線 -->
  <defs><pattern id="grid" width="40" height="40" patternUnits="userSpaceOnUse"><path d="M 40 0 L 0 0 0 40" fill="none" stroke="#ffffff" stroke-width="0.3" opacity="0.05"/></pattern></defs>
  <rect width="1200" height="500" fill="url(#grid)"/>
  <!-- 骨頭人剪影 -->
  <circle cx="250" cy="180" r="35" fill="#1a1a1a" stroke="#ff6b35" stroke-width="1.5" opacity="0.6"/>
  <ellipse cx="240" cy="174" rx="7" ry="8" fill="#ff6b35" opacity="0.5"/>
  <ellipse cx="260" cy="174" rx="7" ry="8" fill="#ff6b35" opacity="0.5"/>
  <rect x="232" y="218" width="36" height="60" rx="6" fill="#1a1a1a" stroke="#ff6b35" stroke-width="1" opacity="0.5"/>
  <line x1="232" y1="235" x2="205" y2="265" stroke="#ff6b35" stroke-width="1.5" opacity="0.5"/>
  <line x1="268" y1="235" x2="295" y2="265" stroke="#ff6b35" stroke-width="1.5" opacity="0.5"/>
  <line x1="242" y1="278" x2="228" y2="330" stroke="#ff6b35" stroke-width="1.5" opacity="0.5"/>
  <line x1="258" y1="278" x2="272" y2="330" stroke="#ff6b35" stroke-width="1.5" opacity="0.5"/>
  <!-- 中央文字裝飾 -->
  <text x="600" y="200" text-anchor="middle" fill="#ff6b35" font-size="13" font-family="sans-serif" letter-spacing="8" opacity="0.4">AI DRIVEN BONE LIFE</text>
  <line x1="200" y1="220" x2="1000" y2="220" stroke="#ff6b35" stroke-width="0.5" opacity="0.15"/>
  <!-- 右側裝飾 -->
  <circle cx="950" cy="180" r="35" fill="#1a1a1a" stroke="#00d4ff" stroke-width="1.5" opacity="0.6"/>
  <text x="950" y="190" text-anchor="middle" fill="#00d4ff" font-size="24" opacity="0.6">🤖</text>
  <!-- 浮動點 -->
  <circle cx="150" cy="100" r="3" fill="#ff6b35" opacity="0.4"/>
  <circle cx="400" cy="80" r="2" fill="#00d4ff" opacity="0.5"/>
  <circle cx="800" cy="90" r="3" fill="#50fa7b" opacity="0.4"/>
  <circle cx="1050" cy="120" r="2" fill="#ff6b35" opacity="0.5"/>
  <circle cx="500" cy="420" r="2" fill="#00d4ff" opacity="0.4"/>
  <circle cx="700" cy="400" r="3" fill="#ff6b35" opacity="0.3"/>
</svg>