<svg viewBox="0 0 600 400" xmlns="http://www.w3.org/2000/svg">
  <defs>
    <radialGradient id="glow1" cx="50%" cy="50%" r="50%"><stop offset="0%" stop-color="#ff6b35" stop-opacity="0.3"/><stop offset="100%" stop-color="#080808" stop-opacity="0"/></radialGradient>
    <radialGradient id="glow2" cx="50%" cy="50%" r="50%"><stop offset="0%" stop-color="#00d4ff" stop-opacity="0.2"/><stop offset="100%" stop-color="#080808" stop-opacity="0"/></radialGradient>
    <filter id="blur"><feGaussianBlur stdDeviation="3"/></filter>
  </defs>
  <rect width="600" height="400" fill="#080808"/>
  <ellipse cx="300" cy="200" rx="200" ry="150" fill="url(#glow1)"/>
  <ellipse cx="480" cy="120" rx="120" ry="100" fill="url(#glow2)"/>
  <!-- 骨頭人輪廓 -->
  <circle cx="300" cy="100" r="45" fill="none" stroke="#ff6b35" stroke-width="2" opacity="0.8"/>
  <circle cx="300" cy="100" r="30" fill="#141414" stroke="#ff6b35" stroke-width="1.5"/>
  <!-- 眼睛 -->
  <ellipse cx="288" cy="95" rx="7" ry="8" fill="#ff6b35" opacity="0.9"/>
  <ellipse cx="312" cy="95" rx="7" ry="8" fill="#ff6b35" opacity="0.9"/>
  <ellipse cx="288" cy="95" rx="3" ry="4" fill="#080808"/>
  <ellipse cx="312" cy="95" rx="3" ry="4" fill="#080808"/>
  <!-- 鼻子 -->
  <ellipse cx="300" cy="104" rx="4" ry="3" fill="#ff6b35" opacity="0.6"/>
  <!-- 微笑 -->
  <path d="M 286 115 Q 300 125 314 115" fill="none" stroke="#ff6b35" stroke-width="2"/>
  <!-- 身體骨架 -->
  <rect x="275" y="148" width="50" height="80" rx="8" fill="none" stroke="#ff6b35" stroke-width="1.5" opacity="0.7"/>
  <line x1="300" y1="148" x2="300" y2="228" stroke="#ff6b35" stroke-width="1" opacity="0.5"/>
  <!-- 手臂 -->
  <line x1="275" y1="165" x2="230" y2="200" stroke="#ff6b35" stroke-width="2" opacity="0.7"/>
  <line x1="325" y1="165" x2="370" y2="200" stroke="#ff6b35" stroke-width="2" opacity="0.7"/>
  <!-- 腿 -->
  <line x1="288" y1="228" x2="270" y2="300" stroke="#ff6b35" stroke-width="2" opacity="0.7"/>
  <line x1="312" y1="228" x2="330" y2="300" stroke="#ff6b35" stroke-width="2" opacity="0.7"/>
  <!-- 西裝領帶 -->
  <path d="M 280 150 L 295 175 L 300 160 L 305 175 L 320 150 Z" fill="#1a1a1a" stroke="#ff6b35" stroke-width="1" opacity="0.8"/>
  <rect x="297" y="168" width="6" height="40" rx="2" fill="#ff6b35" opacity="0.6"/>
  <!-- AI 螢幕 -->
  <rect x="370" y="80" width="130" height="80" rx="8" fill="#141414" stroke="#00d4ff" stroke-width="1.5" opacity="0.9"/>
  <text x="435" y="108" text-anchor="middle" fill="#00d4ff" font-size="9" font-family="monospace">AI ANALYSIS</text>
  <line x1="380" y1="118" x2="490" y2="118" stroke="#00d4ff" stroke-width="0.5" opacity="0.4"/>
  <rect x="382" y="124" width="20" height="6" rx="2" fill="#ff6b35" opacity="0.7"/>
  <rect x="406" y="124" width="35" height="6" rx="2" fill="#00d4ff" opacity="0.5"/>
  <rect x="382" y="134" width="50" height="6" rx="2" fill="#ff6b35" opacity="0.4"/>
  <rect x="436" y="134" width="20" height="6" rx="2" fill="#00d4ff" opacity="0.3"/>
  <rect x="382" y="144" width="15" height="6" rx="2" fill="#50fa7b" opacity="0.6"/>
  <rect x="401" y="144" width="40" height="6" rx="2" fill="#ff6b35" opacity="0.3"/>
  <!-- 連接線 -->
  <line x1="370" y1="120" x2="345" y2="160" stroke="#ff6b35" stroke-width="0.8" stroke-dasharray="4 2" opacity="0.5"/>
  <!-- 左側數據板 -->
  <rect x="100" y="100" width="100" height="120" rx="8" fill="#141414" stroke="#ff6b35" stroke-width="1" opacity="0.8"/>
  <text x="150" y="122" text-anchor="middle" fill="#ff6b35" font-size="8" font-family="monospace">BONE STATUS</text>
  <line x1="110" y1="128" x2="190" y2="128" stroke="#ff6b35" stroke-width="0.5" opacity="0.3"/>
  <!-- 進度條 -->
  <rect x="110" y="136" width="80" height="8" rx="3" fill="#1a1a1a"/>
  <rect x="110" y="136" width="65" height="8" rx="3" fill="#ff6b35" opacity="0.8"/>
  <text x="115" y="157" fill="#6272a4" font-size="7" font-family="monospace">CYNICISM: 98%</text>
  <rect x="110" y="162" width="80" height="8" rx="3" fill="#1a1a1a"/>
  <rect x="110" y="162" width="72" height="8" rx="3" fill="#00d4ff" opacity="0.7"/>
  <text x="115" y="183" fill="#6272a4" font-size="7" font-family="monospace">WISDOM: 91%</text>
  <rect x="110" y="188" width="80" height="8" rx="3" fill="#1a1a1a"/>
  <rect x="110" y="188" width="55" height="8" rx="3" fill="#50fa7b" opacity="0.8"/>
  <text x="115" y="209" fill="#6272a4" font-size="7" font-family="monospace">BS DETECT: 82%</text>
  <!-- 浮動粒子 -->
  <circle cx="180" cy="60" r="2" fill="#ff6b35" opacity="0.6"/>
  <circle cx="420" cy="40" r="3" fill="#00d4ff" opacity="0.5"/>
  <circle cx="80" cy="280" r="2" fill="#50fa7b" opacity="0.4"/>
  <circle cx="520" cy="320" r="2" fill="#ff6b35" opacity="0.5"/>
  <circle cx="50" cy="150" r="1.5" fill="#00d4ff" opacity="0.6"/>
  <circle cx="560" cy="200" r="2" fill="#50fa7b" opacity="0.4"/>
  <!-- 底部文字 -->
  <text x="300" y="360" text-anchor="middle" fill="#ff6b35" font-size="12" font-family="sans-serif" opacity="0.7" letter-spacing="4">AI 驅動的骨頭人生</text>
  <line x1="180" y1="345" x2="420" y2="345" stroke="#ff6b35" stroke-width="0.5" opacity="0.3"/>
</svg>